<svg version="1.1" id="Layer_1" xmlns="http://www.w3.org/2000/svg" xmlns:xlink="http://www.w3.org/1999/xlink" x="0px" y="0px"
	 width="100%" viewBox="0 0 1024 638" enable-background="new 0 0 1024 638" xml:space="preserve">
<path fill="#010101" opacity="1.000000" stroke="none" 
	d="
M637.000000,639.000000 
	C424.666718,639.000000 212.833466,639.000000 1.000142,639.000000 
	C1.000095,426.333466 1.000095,213.666916 1.000047,1.000285 
	C342.333099,1.000190 683.666199,1.000190 1024.999512,1.000095 
	C1024.999634,213.666382 1024.999634,426.332764 1024.999756,638.999573 
	C895.833313,639.000000 766.666687,639.000000 637.000000,639.000000 
M145.975311,259.188019 
	C144.951355,260.731354 143.927399,262.274658 142.306549,264.070984 
	C141.644913,265.168732 140.983276,266.266479 139.822098,267.789307 
	C132.106537,277.667175 124.127548,287.247406 112.322464,292.598724 
	C101.750938,297.390869 93.145782,295.598022 85.333977,287.052032 
	C78.946098,280.063782 74.489304,271.990845 71.619530,262.486542 
	C71.344521,262.012238 71.069511,261.537964 70.878273,260.243225 
	C70.653053,259.181396 70.427826,258.119537 70.390198,256.473206 
	C70.049080,255.754532 69.707970,255.035843 69.451088,253.652374 
	C69.318314,252.773300 69.185532,251.894226 69.294678,250.242554 
	C69.204254,243.492477 69.113831,236.742416 69.252792,229.219269 
	C69.227509,228.159775 69.202225,227.100296 69.537651,225.580261 
	C69.824608,224.697586 70.111557,223.814926 70.746918,222.241196 
	C70.749130,221.472290 70.751335,220.703400 71.224136,219.342728 
	C72.079567,215.562958 72.934998,211.783188 73.925323,207.407349 
	C69.987976,207.750214 66.778244,208.029709 63.641132,208.302887 
	C63.071815,210.526505 62.508190,212.250504 62.213432,214.019302 
	C61.942562,215.644775 61.961235,217.318481 61.658195,219.093048 
	C61.658195,219.093048 61.639194,219.321625 61.133297,219.777847 
	C61.019798,220.873062 60.906303,221.968292 60.473423,223.874237 
	C60.415977,225.610870 60.358532,227.347519 59.899803,229.777542 
	C60.040207,236.150909 60.180611,242.524261 60.147202,249.737091 
	C60.355408,251.138443 60.563614,252.539780 60.575993,254.580124 
	C60.947212,255.600372 61.318432,256.620636 61.545818,258.309113 
	C61.685566,259.202789 61.825317,260.096466 61.758144,261.423828 
	C62.103161,262.103607 62.448177,262.783417 62.781765,264.179291 
	C62.995041,265.104950 63.208317,266.030640 63.300320,267.511108 
	C63.567554,267.996765 63.834785,268.482391 64.060501,269.678467 
	C64.258827,270.099365 64.457161,270.520233 64.595184,271.612091 
	C65.336647,273.209137 66.078117,274.806183 66.847214,277.125549 
	C75.387482,298.047180 94.628143,306.459595 113.016830,297.309326 
	C125.402802,291.145996 134.933640,281.924500 142.653015,269.840454 
	C143.298599,268.713165 143.944168,267.585907 144.998520,265.925964 
	C145.913132,264.138397 146.827744,262.350800 148.274246,260.259674 
	C148.428604,259.892731 148.582947,259.525787 149.279282,258.831726 
	C150.519745,256.317108 151.760208,253.802521 153.000671,251.287903 
	C152.505066,250.983612 152.009460,250.679321 151.513840,250.375031 
	C149.866302,253.129242 148.218765,255.883438 146.597565,258.711487 
	C146.597565,258.711487 146.539185,258.763885 145.975311,259.188019 
M90.159256,146.942169 
	C90.439354,147.403030 90.719452,147.863892 90.817375,148.427917 
	C90.817375,148.427917 90.864426,148.631927 90.136711,148.706879 
	C85.999214,155.812347 81.861710,162.917816 77.263908,170.309113 
	C77.147339,170.834167 77.030769,171.359207 76.887413,172.067078 
	C76.887413,172.067078 77.060936,172.130493 76.408401,172.042435 
	C75.807022,173.382324 75.205643,174.722198 74.047829,176.985107 
	C73.709442,177.992676 73.371048,179.000244 72.580940,180.047211 
	C72.350235,180.952484 72.119530,181.857758 71.335678,183.220581 
	C70.389198,186.847031 69.442719,190.473465 67.832458,194.416290 
	C67.123329,196.846619 66.414200,199.276947 65.705070,201.707275 
	C67.955040,201.923492 70.214035,202.075165 72.450493,202.388016 
	C73.333130,202.511475 74.165535,202.993988 75.714363,203.571686 
	C76.494049,200.495590 77.189331,197.752487 78.157043,194.362198 
	C78.212227,193.366165 78.267410,192.370132 78.247475,192.729996 
	C80.193832,189.274185 81.663063,186.665527 83.710175,183.818375 
	C84.091331,183.146835 84.472481,182.475281 85.153145,181.380798 
	C85.247681,180.900116 85.342224,180.419449 85.963219,179.406418 
	C87.089203,176.940445 88.215187,174.474472 89.942039,172.196594 
	C90.347244,171.529556 90.752441,170.862518 91.562141,169.655228 
	C96.396194,162.445465 101.230255,155.235703 106.685074,147.777512 
	C125.411392,124.196785 147.135345,104.159660 174.687424,91.267097 
	C195.110535,81.710426 216.214996,77.088303 238.380142,84.993217 
	C257.298309,91.740128 270.333099,105.114929 280.252075,122.583557 
	C264.656158,132.691406 252.831757,145.603104 245.152222,162.824783 
	C243.618317,167.069366 247.085693,166.017044 249.875031,166.796280 
	C251.279282,166.753448 252.683548,166.710617 254.387146,167.688065 
	C251.544098,167.792099 248.697891,168.030930 245.858871,167.964157 
	C242.707092,167.890015 241.190216,168.984451 241.882339,172.421539 
	C243.643524,172.236938 245.319473,171.678802 246.829971,171.972260 
	C252.062439,172.988815 256.031464,172.095245 257.874451,165.765442 
	C264.358582,152.534851 270.994263,139.415955 284.158142,129.573502 
	C284.811005,133.127609 285.634033,135.647812 285.675385,138.180756 
	C285.834534,147.933167 285.743622,157.689667 285.305115,167.920517 
	C284.682220,172.064438 284.679016,176.428070 283.304352,180.305450 
	C280.636047,187.831604 277.197174,195.084549 274.057312,202.498413 
	C277.527740,204.157242 278.940979,203.083282 280.267059,200.261353 
	C284.788971,190.638596 286.366852,180.328827 288.228546,169.379044 
	C288.267029,168.482605 288.305511,167.586182 288.843597,166.094193 
	C288.977936,163.708359 289.112305,161.322525 289.553162,158.104080 
	C289.583405,156.037094 289.613678,153.970108 289.990814,151.437347 
	C289.885101,150.325897 289.779388,149.214432 289.830505,147.240860 
	C289.637909,145.513290 289.445312,143.785736 289.540192,141.228714 
	C289.113525,138.282959 288.686859,135.337219 288.424194,131.681717 
	C288.598206,130.279419 288.772186,128.877106 289.507385,127.507996 
	C289.965332,127.207832 290.423248,126.907669 291.611847,126.683777 
	C294.727020,125.649315 297.842163,124.614853 301.729401,123.705658 
	C303.463257,123.396439 305.197083,123.087219 307.822632,122.942924 
	C310.234985,122.887794 312.647339,122.832664 315.753723,123.083282 
	C317.853607,123.213577 319.953491,123.343880 322.805450,123.768227 
	C324.899292,124.070671 326.993164,124.373123 329.444977,125.053314 
	C330.300507,125.047211 331.156036,125.041100 332.446472,125.272827 
	C332.446472,125.272827 332.933167,125.367058 332.933167,125.367058 
	C332.933167,125.367058 333.419373,125.270355 333.780609,125.766075 
	C334.540833,125.921913 335.301056,126.077744 336.766815,126.580856 
	C337.545044,126.597733 338.323242,126.614601 339.453705,127.081161 
	C339.990967,127.141441 340.528198,127.201714 341.651855,127.669418 
	C342.122192,127.699577 342.592560,127.729736 343.559418,128.174759 
	C344.387512,128.313843 345.215607,128.452927 346.735474,128.876495 
	C347.918762,129.239471 349.102020,129.602432 350.296448,130.664261 
	C350.244110,131.126099 350.191772,131.587952 349.627655,132.489456 
	C347.428802,136.065079 345.229950,139.640717 342.255524,143.510696 
	C341.541077,143.027313 340.887787,142.328156 340.099640,142.104645 
	C338.359161,141.611084 336.142029,140.570511 334.883911,141.224335 
	C333.601196,141.890961 332.410522,144.491028 332.709442,145.925919 
	C332.980835,147.228943 335.254761,148.190659 336.754059,149.130127 
	C337.504486,149.600357 338.496307,149.685394 338.891052,150.504715 
	C337.069122,154.608719 335.247192,158.712738 332.848541,163.073914 
	C330.685059,167.660980 336.481445,165.771194 336.163727,168.253220 
	C331.433289,167.313339 329.680450,169.703445 329.246582,174.397797 
	C329.175720,174.944016 329.104858,175.490250 328.472351,176.567276 
	C329.163879,177.106171 329.840302,178.087280 330.549469,178.111542 
	C334.865387,178.259155 339.191559,178.093262 343.508698,178.221069 
	C347.140991,178.328598 349.163910,176.902405 349.673370,172.585739 
	C349.742065,171.398590 349.810730,170.211426 350.559021,168.790207 
	C350.960663,167.758331 351.362335,166.726440 351.963165,165.004440 
	C353.331268,161.621887 354.705688,158.241852 356.065552,154.855988 
	C357.243927,151.921936 358.405792,148.981247 359.574951,146.043503 
	C360.041229,146.210266 360.507507,146.377014 360.973816,146.543777 
	C361.030396,147.198975 361.107941,147.853149 361.140259,148.509552 
	C361.472534,155.255554 364.474701,158.291275 370.552948,158.017426 
	C376.018005,157.771194 378.822998,154.181274 378.663788,147.738876 
	C378.641388,146.832443 378.723511,145.816833 379.111816,145.025803 
	C380.584778,142.025055 382.203491,139.095871 384.189148,135.343430 
	C407.456238,132.365784 430.862000,126.591263 448.325653,108.180794 
	C446.900330,108.490547 444.852112,108.492722 443.264862,109.349174 
	C427.490997,117.860367 410.469849,117.408615 393.578156,115.553375 
	C378.101227,113.853508 362.818085,110.458412 347.390045,108.220619 
	C335.746490,106.531761 324.046356,105.061195 312.328094,108.508392 
	C310.801575,108.957451 307.218811,110.933517 307.039856,106.793495 
	C310.932343,105.750648 312.890717,103.158325 312.710388,99.187599 
	C312.518372,94.959320 308.859283,91.939140 304.629120,92.254311 
	C300.622040,92.552864 297.996002,95.693237 298.094818,100.068512 
	C298.200836,104.763878 300.553375,106.661964 307.142853,107.510002 
	C299.868408,111.374710 292.593994,115.239426 285.889923,118.801102 
	C280.476776,112.063133 275.813080,104.860382 269.815765,99.029282 
	C240.162964,70.198334 189.776871,65.758865 152.859268,83.820778 
	C134.354355,92.874283 120.099663,107.109314 107.359497,122.851875 
	C101.244339,130.408157 96.217163,138.844910 90.770035,146.979645 
	C90.770035,146.979645 90.872292,146.914261 90.159256,146.942169 
M328.258179,184.023697 
	C327.243256,185.025589 326.228333,186.027496 324.947266,187.660004 
	C324.081421,189.484863 323.215546,191.309738 322.118744,193.815582 
	C321.690979,195.184601 321.263214,196.553619 320.309906,198.017303 
	C320.210114,198.678528 320.110352,199.339737 319.952576,200.631668 
	C319.829742,201.034668 319.706909,201.437683 318.898651,202.109756 
	C318.654999,203.813904 318.411346,205.518051 317.864380,207.883316 
	C314.278442,219.075775 310.692535,230.268250 307.106628,241.460724 
	C306.676270,241.018585 306.245911,240.576462 305.815552,240.134323 
	C303.097229,241.853546 299.677094,243.059616 297.910950,245.475052 
	C296.761627,247.046890 297.026154,251.517990 298.388062,252.705734 
	C302.251190,256.074982 300.726196,258.877136 298.959900,262.181671 
	C297.553864,264.812195 296.719604,267.810242 295.017456,270.209442 
	C288.739502,279.058197 282.206360,287.725891 275.679901,296.582794 
	C281.601257,294.356445 288.220398,292.304077 294.462006,289.431427 
	C308.068665,283.169159 315.267761,271.080688 320.803192,258.090149 
	C326.407135,244.938904 331.231934,231.444443 336.027222,217.968399 
	C337.108215,214.930557 336.653534,211.346283 337.636047,207.808395 
	C338.366974,206.801849 339.097931,205.795303 339.931488,204.220093 
	C340.056824,203.856277 340.182129,203.492477 340.826294,203.073853 
	C340.908783,202.384369 340.991241,201.694885 341.055359,200.425873 
	C340.934998,200.058563 340.814636,199.691254 341.061127,198.894501 
	C341.123810,198.527298 341.186493,198.160080 341.814484,197.203506 
	C342.056580,196.158493 342.298676,195.113480 343.051910,194.011368 
	C343.109375,193.705338 343.203430,193.399612 343.205872,193.093140 
	C343.206848,192.974213 343.007294,192.755951 342.888000,192.747925 
	C338.948578,192.482803 334.950623,192.540833 331.100220,191.814606 
	C329.861786,191.581024 329.011780,189.287781 328.903809,188.127060 
	C333.945465,188.099945 338.987122,188.072815 344.712097,187.890854 
	C344.355164,187.109970 344.204926,186.076309 343.608368,185.588440 
	C339.104584,181.905289 334.044678,183.097214 328.258179,184.023697 
M231.967041,208.010254 
	C231.997818,209.367249 232.028595,210.724243 231.831741,212.751556 
	C231.685150,213.443100 231.538559,214.134644 230.840576,215.099365 
	C230.878738,216.397873 230.916901,217.696365 230.981445,219.863770 
	C230.952179,225.580841 230.922928,231.297913 230.452713,237.269730 
	C230.836639,237.893448 231.220566,238.517181 231.940887,239.765793 
	C235.705368,247.024597 240.561508,249.414169 246.492462,246.337067 
	C249.589874,244.730087 252.188782,242.162308 255.667557,239.887772 
	C261.480988,231.267212 267.294403,222.646637 273.440277,213.435883 
	C274.634186,211.446808 275.828125,209.457733 277.144562,207.264542 
	C269.991150,205.249435 271.116516,211.259933 268.600922,214.460983 
	C263.426514,222.318665 258.252075,230.176346 252.501953,238.246857 
	C251.675018,238.835938 250.848083,239.425003 249.238739,240.083572 
	C246.534149,240.036179 243.829559,239.988785 240.747009,239.548004 
	C240.617096,239.210587 240.487183,238.873184 240.735321,237.891418 
	C240.287003,236.882416 239.838684,235.873413 239.253159,234.014481 
	C239.302963,231.721680 239.352768,229.428879 240.020584,226.911743 
	C240.079880,225.282440 240.139175,223.653137 240.172714,221.246307 
	C240.637482,218.647751 241.102264,216.049210 241.869507,212.687820 
	C241.878799,212.414459 241.888107,212.141083 242.075287,211.164246 
	C241.776611,208.803497 241.477936,206.442764 241.839401,203.848251 
	C242.881500,202.530716 244.366562,201.368149 244.890930,199.869461 
	C247.505051,192.398071 249.866684,184.838318 252.413315,177.014313 
	C248.919586,175.894958 245.283600,174.730042 240.655594,173.247284 
	C239.200989,178.824036 237.950912,183.616669 236.221344,188.784164 
	C236.075760,189.546783 235.930191,190.309402 235.391571,191.675827 
	C235.381195,192.149017 235.370819,192.622223 234.913040,193.632309 
	C234.762726,194.773315 234.612427,195.914337 234.212708,197.782928 
	C233.862808,199.514542 233.512909,201.246155 232.920975,203.808746 
	C232.802322,205.150467 232.683670,206.492203 231.967041,208.010254 
M766.252258,313.894562 
	C769.857788,294.963959 773.787537,276.087677 776.971558,257.086426 
	C779.773254,240.366776 781.920471,223.529633 784.008972,206.701218 
	C785.259216,196.626953 785.792297,186.465134 786.746033,176.351959 
	C787.153870,172.027420 784.663513,170.195480 781.018799,169.649567 
	C777.224060,169.081177 776.239746,171.981491 775.707520,174.890701 
	C775.020691,178.645264 774.665649,182.461441 773.951721,186.209976 
	C770.064453,206.622757 763.800659,226.150146 751.866211,243.442123 
	C738.522766,262.775757 720.583984,275.306030 696.908691,277.499115 
	C683.518005,278.739502 669.933472,277.972687 656.436646,277.938904 
	C651.344177,277.926147 647.208984,274.841858 646.251953,270.036926 
	C645.483582,266.179413 644.875793,262.004944 645.530701,258.200745 
	C647.755432,245.277298 650.474854,232.435226 653.184204,219.599854 
	C657.539673,198.966599 662.024902,178.360672 666.478821,157.748291 
	C671.739441,133.402481 676.849670,109.022102 682.386719,84.739151 
	C684.588928,75.081039 685.553955,64.956299 691.296936,56.357929 
	C695.446289,50.145435 700.763062,46.470966 708.634094,46.511463 
	C738.632385,46.665817 768.631775,46.594620 798.630798,46.581257 
	C809.258606,46.576523 819.536133,48.293037 828.993164,53.311249 
	C850.553162,64.751648 858.433228,84.683617 860.613403,107.215118 
	C861.872070,120.223442 860.990784,133.466843 860.603088,146.590546 
	C860.475159,150.921524 861.695190,153.503662 865.878235,153.999832 
	C870.071655,154.497238 871.297913,151.350266 871.667297,147.996063 
	C873.579773,130.629440 875.304138,113.241844 877.268127,95.881256 
	C878.688171,83.329018 880.354980,70.804321 881.960388,58.273575 
	C882.869934,51.173786 883.890076,44.088230 884.835266,36.992908 
	C885.286865,33.602566 883.831543,31.939022 880.344055,32.121830 
	C878.847717,32.200268 877.340515,32.086250 875.845703,32.179390 
	C857.558777,33.318817 839.279724,35.339386 820.986084,35.478485 
	C761.491699,35.930843 701.992004,35.700745 642.494385,35.712730 
	C640.332520,35.713165 638.168762,35.525997 636.009155,35.377651 
	C620.553894,34.315990 605.101257,33.216549 589.643738,32.190193 
	C586.047241,31.951395 584.068909,33.533237 583.931030,37.405678 
	C583.796570,41.183140 585.440186,42.906906 589.113708,43.217819 
	C594.078613,43.638039 599.036682,44.173275 603.981995,44.785233 
	C620.006592,46.768192 628.345276,55.775505 627.803467,71.823166 
	C627.530884,79.896484 625.908020,87.985565 624.276489,95.940506 
	C618.671631,123.268715 612.814819,150.545425 607.012695,177.832977 
	C601.902222,201.867676 596.723694,225.887878 591.599304,249.919601 
	C587.062683,271.194580 582.560730,292.476990 578.040710,313.755493 
	C574.036194,332.607727 570.010315,351.455475 566.025696,370.311920 
	C562.249634,388.181274 558.563843,406.069794 554.748901,423.930786 
	C550.622742,443.248749 546.409485,462.548187 542.203979,481.849121 
	C538.067871,500.831757 534.274475,519.900146 529.614380,538.753906 
	C525.982910,553.445801 518.549377,565.798157 504.194275,572.781311 
	C494.379028,577.556030 483.758331,578.493103 473.164337,579.447937 
	C469.362244,579.790649 465.986969,580.016907 466.072571,584.957031 
	C466.141174,588.917114 469.124847,590.913025 474.344635,590.595764 
	C475.341431,590.535217 476.330444,590.346802 477.327240,590.286316 
	C494.612885,589.238037 511.894470,587.403503 529.186218,587.301208 
	C597.014771,586.899841 664.846802,586.975891 732.677185,587.067810 
	C742.127197,587.080627 751.604492,587.892944 761.014099,588.867310 
	C766.675903,589.453674 767.619934,589.264771 769.008911,583.720642 
	C772.437683,570.035217 775.659241,556.292297 779.384338,542.687561 
	C790.166382,503.310455 801.068115,463.965271 812.188477,424.682739 
	C813.393860,420.424866 812.917175,417.773499 808.863586,416.384247 
	C804.300598,414.820465 802.996033,417.835358 801.660278,421.573883 
	C795.354553,439.222412 789.558716,457.115601 782.087952,474.271271 
	C769.819275,502.444824 753.219238,527.872437 729.603821,548.101807 
	C711.036255,564.007080 689.794373,574.520569 665.174316,575.584595 
	C641.384460,576.612854 617.520020,575.965576 593.688477,575.946533 
	C587.662903,575.941711 583.767578,573.127869 582.748169,567.120544 
	C581.901062,562.129211 581.474915,556.726990 582.452515,551.823853 
	C586.897766,529.527893 591.927002,507.348785 596.705505,485.118896 
	C602.499573,458.164642 608.251221,431.201263 614.023865,404.242371 
	C619.275452,379.717346 624.297791,355.139801 629.893677,330.693573 
	C632.284607,320.248810 635.306763,309.861755 639.123108,299.860962 
	C641.614868,293.331177 647.588318,289.156067 654.764893,289.093964 
	C668.566528,288.974518 682.442627,288.923615 696.167236,290.171173 
	C725.669067,292.852997 740.110840,313.596252 744.028870,338.875244 
	C746.605469,355.499481 745.745667,372.078613 742.784729,388.575958 
	C742.007751,392.904785 744.449707,395.005646 748.009521,395.620728 
	C751.480164,396.220398 753.475708,394.075012 754.062012,390.569855 
	C754.828979,385.985413 755.865234,381.444702 756.582581,376.853485 
	C759.816467,356.158234 762.978638,335.451813 766.252258,313.894562 
M172.158981,530.845825 
	C175.614929,514.435547 179.135941,498.038635 182.507553,481.611023 
	C185.562347,466.727112 189.383499,452.151764 198.429611,439.559601 
	C206.068634,428.926056 215.534836,420.811005 229.055237,419.168121 
	C239.925278,417.847290 247.461533,421.794647 248.971237,430.952087 
	C249.744217,435.640747 249.748352,440.726501 248.822418,445.378510 
	C244.641083,466.385895 239.985306,487.298645 235.539230,508.253693 
	C233.927338,515.850769 232.423691,523.470886 230.724792,531.795288 
	C236.249344,531.795288 241.204010,531.636536 246.142166,531.853271 
	C249.232864,531.988892 250.356628,530.958069 251.007889,527.824646 
	C255.636230,505.556488 260.746002,483.386993 265.232513,461.091522 
	C267.126770,451.678314 268.799072,442.048218 268.921234,432.495575 
	C269.064362,421.303619 264.659729,411.532135 253.884354,406.260956 
	C245.160782,401.993530 235.785507,402.062744 226.543488,404.175140 
	C215.766068,406.638458 207.444214,413.233490 200.131348,421.225159 
	C197.882446,423.682831 195.688980,426.191193 192.727982,429.507538 
	C198.682892,402.973938 204.364014,377.660309 210.177505,351.756805 
	C204.465729,351.756805 199.491989,351.882324 194.528778,351.708160 
	C191.704605,351.609070 190.509750,352.445679 189.934982,355.435364 
	C187.805984,366.509338 185.271851,377.504852 182.943695,388.541199 
	C178.934326,407.547241 175.012131,426.571808 170.965988,445.569977 
	C166.988678,464.244812 162.867386,482.888977 158.878815,501.561432 
	C156.774063,511.414856 154.817596,521.299988 152.724152,531.512390 
	C159.375488,531.512390 165.493408,531.512390 172.158981,530.845825 
M456.940002,248.597122 
	C457.372955,246.660400 457.858948,244.733795 458.230286,242.785324 
	C460.709595,229.775360 464.656921,217.294891 472.257996,206.297806 
	C479.777618,195.418594 489.190369,186.951096 502.946991,185.174362 
	C516.804199,183.384659 525.108887,191.528320 522.657043,205.295486 
	C518.904785,226.364471 514.351440,247.290939 510.125732,268.275391 
	C508.335724,277.164612 506.514404,286.047516 504.655914,295.186066 
	C511.257263,295.186066 517.337036,295.186066 523.552673,295.186066 
	C528.189087,273.511780 532.961731,252.122055 537.274780,230.640045 
	C539.362061,220.244125 541.531738,209.714066 541.968140,199.174530 
	C542.547424,185.183914 535.967896,175.671814 524.140381,171.572998 
	C507.123260,165.675751 492.412079,170.750000 479.564850,182.377487 
	C475.476074,186.078033 471.922760,190.370209 467.467987,195.086624 
	C473.235168,169.319611 478.761322,144.629578 484.462067,119.159317 
	C479.337158,119.159317 475.024994,119.484283 470.785522,119.068367 
	C466.504913,118.648415 465.044678,120.378143 464.236267,124.374802 
	C459.330322,148.629532 454.242493,172.848114 449.098114,197.053818 
	C442.167847,229.662506 435.131409,262.248627 428.066193,295.190979 
	C434.505188,295.190979 440.575531,295.190979 447.050049,295.190979 
	C450.326263,279.919128 453.594910,264.682404 456.940002,248.597122 
M926.362976,515.940613 
	C920.954041,518.762146 915.653198,521.829956 910.078918,524.274414 
	C908.068909,525.155945 905.402466,524.540527 903.035583,524.608215 
	C903.021667,522.178650 902.264771,519.433167 903.137390,517.380493 
	C905.467102,511.900513 908.357666,506.640106 911.274963,501.432281 
	C920.202881,485.494232 929.712585,469.861206 938.075134,453.634918 
	C943.174988,443.739410 946.270874,432.840027 945.249756,421.409454 
	C944.007996,407.509155 930.634216,394.918335 914.302368,406.108398 
	C909.526001,409.381042 904.612366,412.842468 900.883484,417.181458 
	C890.180359,429.635956 880.051514,442.584015 868.968750,456.235016 
	C869.584656,453.943298 869.778870,452.241547 870.476746,450.780243 
	C875.572449,440.109253 880.890198,429.542908 885.887939,418.826965 
	C888.773499,412.639801 886.024109,405.674896 880.219788,403.398712 
	C874.094849,400.996796 868.386169,404.086884 865.955017,411.134277 
	C862.008606,422.573700 857.877930,433.954010 854.171021,445.470642 
	C847.314270,466.773407 840.588562,488.120514 834.082886,509.532593 
	C832.502930,514.732422 831.529602,520.229370 831.207458,525.645020 
	C831.072266,527.916443 833.356628,530.331848 834.540955,532.681763 
	C836.522949,531.013855 838.551514,529.396240 840.448975,527.637146 
	C840.845886,527.269226 840.682434,526.351624 840.906982,525.734558 
	C843.170105,519.515808 844.895996,513.024536 847.838135,507.142731 
	C862.572754,477.685547 881.551697,451.030212 902.925720,426.086823 
	C907.300354,420.981628 912.910767,416.878143 918.232422,412.667877 
	C920.579773,410.810760 924.110657,409.555756 926.280212,412.529053 
	C927.819153,414.638123 928.844666,418.066223 928.325439,420.531982 
	C927.311890,425.344574 925.494080,430.120850 923.235413,434.514343 
	C915.030823,450.473572 906.358826,466.192566 898.156067,482.152679 
	C893.006348,492.172546 890.105164,502.932465 890.051880,514.264160 
	C890.001587,524.959778 894.277100,532.394348 902.103027,533.507019 
	C906.205017,534.090210 911.440369,533.168823 914.851807,530.928772 
	C925.075195,524.215820 935.854004,517.667542 944.199951,508.936523 
	C956.674622,495.886322 967.320007,481.077759 978.600281,466.903107 
	C981.021240,463.860992 982.449280,459.559357 978.501221,457.262726 
	C974.811646,455.116394 973.043823,459.256531 971.247925,461.981384 
	C967.226868,468.082397 963.308044,474.266541 958.979553,480.145874 
	C949.508911,493.009735 940.004639,505.882477 926.362976,515.940613 
M392.327240,501.840302 
	C402.655914,482.650085 406.465088,462.193207 403.936737,440.596558 
	C401.875000,422.985687 388.969604,408.559448 371.606781,404.777832 
	C347.206024,399.463348 327.117798,406.957520 312.197449,426.805054 
	C296.722290,447.390625 292.019440,471.201172 295.096008,496.286163 
	C297.042969,512.160767 305.936096,524.073608 321.221069,530.178040 
	C331.733582,534.376404 342.812103,534.503296 353.672699,532.180054 
	C371.046906,528.463623 383.070221,517.382751 392.327240,501.840302 
M417.813538,514.642029 
	C417.813080,516.474792 418.097107,518.361938 417.758606,520.130005 
	C416.756897,525.361816 419.509857,527.798279 424.022705,528.911499 
	C430.936615,530.617126 437.808807,532.770691 444.835144,533.682007 
	C458.099579,535.402222 471.032867,533.651306 483.186584,527.675171 
	C504.350616,517.268555 509.074432,485.952850 490.154663,471.128632 
	C487.667755,469.180023 485.197571,467.179291 482.539246,465.485962 
	C474.836151,460.579224 466.885590,456.046021 459.334503,450.920776 
	C453.893158,447.227509 451.119965,441.710297 452.042877,434.993073 
	C453.013062,427.931793 457.098663,422.773560 463.933105,421.048737 
	C469.454437,419.655243 475.480743,418.755219 481.059723,419.444214 
	C489.843292,420.528961 498.439362,423.132080 507.853790,425.259369 
	C509.515533,421.294006 511.530334,416.486176 513.596741,411.555206 
	C512.799683,411.019287 512.305298,410.576508 511.728607,410.315186 
	C496.158051,403.260132 479.799988,400.651154 463.037506,403.692017 
	C452.154999,405.666168 442.545746,411.005493 436.997223,421.258301 
	C429.190277,435.684387 431.341614,454.490814 447.923645,465.630768 
	C456.887238,471.652618 466.354523,476.964508 475.037750,483.353485 
	C485.222443,490.847229 484.630127,505.500488 474.197662,512.686646 
	C464.137238,519.616577 452.688080,519.313599 441.518616,517.072266 
	C433.528809,515.468994 425.909302,512.020264 418.120483,509.393616 
	C418.063782,509.571106 417.889160,509.883453 417.875519,510.202698 
	C417.825806,511.367096 417.829773,512.533752 417.813538,514.642029 
M89.337799,516.539368 
	C78.507141,513.460510 72.407639,505.765137 70.971008,495.164429 
	C68.376358,476.018829 71.531860,457.622711 81.695061,440.948273 
	C91.433464,424.970825 105.118774,416.185760 124.609367,419.739471 
	C130.558929,420.824249 136.408936,422.455139 142.695724,423.927551 
	C144.000763,420.133728 145.221146,416.195465 146.715561,412.364105 
	C147.929855,409.250977 147.037277,407.647766 143.811386,407.029053 
	C136.660721,405.657501 129.583603,403.609100 122.372200,402.905029 
	C104.139496,401.124878 88.041878,406.528229 75.190536,419.713745 
	C54.136208,441.315552 48.206093,468.089325 51.103016,497.043457 
	C52.685112,512.856201 61.336159,524.677979 76.680382,530.457153 
	C93.813980,536.910217 110.660835,534.657898 127.135345,527.753784 
	C128.245529,527.288513 129.522171,525.694458 129.596085,524.552551 
	C129.882217,520.132141 129.712418,515.682190 129.712418,510.601471 
	C124.530762,512.397156 120.092598,514.095215 115.556992,515.472290 
	C107.207390,518.007202 98.753479,519.390686 89.337799,516.539368 
M144.149765,244.794632 
	C147.783157,245.463074 151.748199,245.722839 152.537125,241.210434 
	C152.921417,239.012436 151.493668,235.255051 149.733688,234.276596 
	C147.997589,233.311417 143.983170,234.127945 142.437256,235.652420 
	C139.781647,238.271240 140.474213,241.748215 144.149765,244.794632 
M390.503601,163.175247 
	C391.860352,161.858429 393.217102,160.541611 394.573853,159.224777 
	C393.278931,157.957474 392.134888,155.983292 390.637695,155.663818 
	C389.585846,155.439331 386.932159,157.530960 386.985199,158.476624 
	C387.075745,160.090271 388.730225,161.616150 390.503601,163.175247 
M324.664124,270.720795 
	C323.635590,272.260040 322.356628,273.710205 321.755066,275.401337 
	C321.605225,275.822479 323.714081,277.772552 324.658051,277.683014 
	C325.991669,277.556610 327.207458,276.187012 328.473602,275.348846 
	C327.428864,273.805115 326.384125,272.261383 324.664124,270.720795 
M329.281464,98.684525 
	C327.914856,97.905136 326.548279,97.125748 325.181641,96.346352 
	C324.652985,97.451561 323.723846,98.557938 323.727051,99.661613 
	C323.729462,100.490219 325.325775,102.115326 325.533386,102.012657 
	C326.918304,101.327728 328.120667,100.273605 329.281464,98.684525 
M153.719406,247.074020 
	C153.879807,247.063797 154.040222,247.053574 154.200623,247.043335 
	C153.848785,247.632828 153.496948,248.222321 153.145111,248.811813 
	C152.923843,248.590057 152.702591,248.368317 152.481339,248.146561 
	C152.760025,247.827850 153.038696,247.509125 153.719406,247.074020 
z"/>
<path fill="#FBFBFB" opacity="1.000000" stroke="none" 
	d="
M766.209473,314.321960 
	C762.978638,335.451813 759.816467,356.158234 756.582581,376.853485 
	C755.865234,381.444702 754.828979,385.985413 754.062012,390.569855 
	C753.475708,394.075012 751.480164,396.220398 748.009521,395.620728 
	C744.449707,395.005646 742.007751,392.904785 742.784729,388.575958 
	C745.745667,372.078613 746.605469,355.499481 744.028870,338.875244 
	C740.110840,313.596252 725.669067,292.852997 696.167236,290.171173 
	C682.442627,288.923615 668.566528,288.974518 654.764893,289.093964 
	C647.588318,289.156067 641.614868,293.331177 639.123108,299.860962 
	C635.306763,309.861755 632.284607,320.248810 629.893677,330.693573 
	C624.297791,355.139801 619.275452,379.717346 614.023865,404.242371 
	C608.251221,431.201263 602.499573,458.164642 596.705505,485.118896 
	C591.927002,507.348785 586.897766,529.527893 582.452515,551.823853 
	C581.474915,556.726990 581.901062,562.129211 582.748169,567.120544 
	C583.767578,573.127869 587.662903,575.941711 593.688477,575.946533 
	C617.520020,575.965576 641.384460,576.612854 665.174316,575.584595 
	C689.794373,574.520569 711.036255,564.007080 729.603821,548.101807 
	C753.219238,527.872437 769.819275,502.444824 782.087952,474.271271 
	C789.558716,457.115601 795.354553,439.222412 801.660278,421.573883 
	C802.996033,417.835358 804.300598,414.820465 808.863586,416.384247 
	C812.917175,417.773499 813.393860,420.424866 812.188477,424.682739 
	C801.068115,463.965271 790.166382,503.310455 779.384338,542.687561 
	C775.659241,556.292297 772.437683,570.035217 769.008911,583.720642 
	C767.619934,589.264771 766.675903,589.453674 761.014099,588.867310 
	C751.604492,587.892944 742.127197,587.080627 732.677185,587.067810 
	C664.846802,586.975891 597.014771,586.899841 529.186218,587.301208 
	C511.894470,587.403503 494.612885,589.238037 477.327240,590.286316 
	C476.330444,590.346802 475.341431,590.535217 474.344635,590.595764 
	C469.124847,590.913025 466.141174,588.917114 466.072571,584.957031 
	C465.986969,580.016907 469.362244,579.790649 473.164337,579.447937 
	C483.758331,578.493103 494.379028,577.556030 504.194275,572.781311 
	C518.549377,565.798157 525.982910,553.445801 529.614380,538.753906 
	C534.274475,519.900146 538.067871,500.831757 542.203979,481.849121 
	C546.409485,462.548187 550.622742,443.248749 554.748901,423.930786 
	C558.563843,406.069794 562.249634,388.181274 566.025696,370.311920 
	C570.010315,351.455475 574.036194,332.607727 578.040710,313.755493 
	C582.560730,292.476990 587.062683,271.194580 591.599304,249.919601 
	C596.723694,225.887878 601.902222,201.867676 607.012695,177.832977 
	C612.814819,150.545425 618.671631,123.268715 624.276489,95.940506 
	C625.908020,87.985565 627.530884,79.896484 627.803467,71.823166 
	C628.345276,55.775505 620.006592,46.768192 603.981995,44.785233 
	C599.036682,44.173275 594.078613,43.638039 589.113708,43.217819 
	C585.440186,42.906906 583.796570,41.183140 583.931030,37.405678 
	C584.068909,33.533237 586.047241,31.951395 589.643738,32.190193 
	C605.101257,33.216549 620.553894,34.315990 636.009155,35.377651 
	C638.168762,35.525997 640.332520,35.713165 642.494385,35.712730 
	C701.992004,35.700745 761.491699,35.930843 820.986084,35.478485 
	C839.279724,35.339386 857.558777,33.318817 875.845703,32.179390 
	C877.340515,32.086250 878.847717,32.200268 880.344055,32.121830 
	C883.831543,31.939022 885.286865,33.602566 884.835266,36.992908 
	C883.890076,44.088230 882.869934,51.173786 881.960388,58.273575 
	C880.354980,70.804321 878.688171,83.329018 877.268127,95.881256 
	C875.304138,113.241844 873.579773,130.629440 871.667297,147.996063 
	C871.297913,151.350266 870.071655,154.497238 865.878235,153.999832 
	C861.695190,153.503662 860.475159,150.921524 860.603088,146.590546 
	C860.990784,133.466843 861.872070,120.223442 860.613403,107.215118 
	C858.433228,84.683617 850.553162,64.751648 828.993164,53.311249 
	C819.536133,48.293037 809.258606,46.576523 798.630798,46.581257 
	C768.631775,46.594620 738.632385,46.665817 708.634094,46.511463 
	C700.763062,46.470966 695.446289,50.145435 691.296936,56.357929 
	C685.553955,64.956299 684.588928,75.081039 682.386719,84.739151 
	C676.849670,109.022102 671.739441,133.402481 666.478821,157.748291 
	C662.024902,178.360672 657.539673,198.966599 653.184204,219.599854 
	C650.474854,232.435226 647.755432,245.277298 645.530701,258.200745 
	C644.875793,262.004944 645.483582,266.179413 646.251953,270.036926 
	C647.208984,274.841858 651.344177,277.926147 656.436646,277.938904 
	C669.933472,277.972687 683.518005,278.739502 696.908691,277.499115 
	C720.583984,275.306030 738.522766,262.775757 751.866211,243.442123 
	C763.800659,226.150146 770.064453,206.622757 773.951721,186.209976 
	C774.665649,182.461441 775.020691,178.645264 775.707520,174.890701 
	C776.239746,171.981491 777.224060,169.081177 781.018799,169.649567 
	C784.663513,170.195480 787.153870,172.027420 786.746033,176.351959 
	C785.792297,186.465134 785.259216,196.626953 784.008972,206.701218 
	C781.920471,223.529633 779.773254,240.366776 776.971558,257.086426 
	C773.787537,276.087677 769.857788,294.963959 766.209473,314.321960 
z"/>
<path fill="#F4F4F4" opacity="1.000000" stroke="none" 
	d="
M289.643921,151.903122 
	C289.613678,153.970108 289.583405,156.037094 289.082336,158.717529 
	C288.522308,161.783890 288.433167,164.236816 288.343994,166.689743 
	C288.305511,167.586182 288.267029,168.482605 287.726959,169.588806 
	C286.732239,169.013916 286.239075,168.229279 285.745941,167.444641 
	C285.743622,157.689667 285.834534,147.933167 285.675385,138.180756 
	C285.634033,135.647812 284.811005,133.127609 284.158142,129.573502 
	C270.994263,139.415955 264.358582,152.534851 257.263123,165.900513 
	C255.797134,166.246307 254.942459,166.457047 254.087799,166.667786 
	C252.683548,166.710617 251.279282,166.753448 249.430878,166.327637 
	C247.887070,164.736252 246.787399,163.613525 245.687729,162.490814 
	C252.831757,145.603104 264.656158,132.691406 280.252075,122.583557 
	C270.333099,105.114929 257.298309,91.740128 238.380142,84.993217 
	C216.214996,77.088303 195.110535,81.710426 174.687424,91.267097 
	C147.135345,104.159660 125.411392,124.196785 106.010208,147.879547 
	C104.605667,147.997681 103.875992,148.013763 102.931244,147.630173 
	C100.641464,147.054306 98.569420,146.791031 96.491264,146.727386 
	C94.563324,146.668381 92.628860,146.822601 90.697266,146.882919 
	C96.217163,138.844910 101.244339,130.408157 107.359497,122.851875 
	C120.099663,107.109314 134.354355,92.874283 152.859268,83.820778 
	C189.776871,65.758865 240.162964,70.198334 269.815765,99.029282 
	C275.813080,104.860382 280.476776,112.063133 285.889923,118.801102 
	C292.593994,115.239426 299.868408,111.374710 306.743134,107.168869 
	C306.343414,106.827744 306.256653,106.806900 306.256653,106.806900 
	C307.218811,110.933517 310.801575,108.957451 312.328094,108.508392 
	C324.046356,105.061195 335.746490,106.531761 347.390045,108.220619 
	C362.818085,110.458412 378.101227,113.853508 393.578156,115.553375 
	C410.469849,117.408615 427.490997,117.860367 443.264862,109.349174 
	C444.852112,108.492722 446.900330,108.490547 448.325653,108.180794 
	C430.862000,126.591263 407.456238,132.365784 384.189148,135.343430 
	C382.203491,139.095871 380.584778,142.025055 379.111816,145.025803 
	C378.723511,145.816833 378.641388,146.832443 378.663788,147.738876 
	C378.822998,154.181274 376.018005,157.771194 370.552948,158.017426 
	C364.474701,158.291275 361.472534,155.255554 361.140259,148.509552 
	C361.107941,147.853149 361.030396,147.198975 360.973816,146.543777 
	C360.507507,146.377014 360.041229,146.210266 359.574951,146.043503 
	C358.405792,148.981247 357.243927,151.921936 356.065552,154.855988 
	C354.705688,158.241852 353.331268,161.621887 351.489685,165.445190 
	C345.391022,165.469482 339.763428,165.079239 334.147552,164.561813 
	C333.855652,164.534927 333.663727,163.423355 333.425293,162.816757 
	C335.247192,158.712738 337.069122,154.608719 339.457489,150.176361 
	C341.026337,147.637451 342.028717,145.426910 343.031097,143.216354 
	C345.229950,139.640717 347.428802,136.065079 350.169617,132.240326 
	C350.569489,131.315933 350.427399,130.640671 350.285339,129.965408 
	C349.102020,129.602432 347.918762,129.239471 346.339691,128.445297 
	C344.983582,127.929367 344.023224,127.844635 343.062897,127.759903 
	C342.592560,127.729736 342.122192,127.699577 341.307404,127.235191 
	C340.342468,126.744469 339.721954,126.687965 339.101471,126.631470 
	C338.323242,126.614601 337.545044,126.597733 336.262146,126.131271 
	C334.978119,125.544571 334.198761,125.407463 333.419373,125.270355 
	C333.419373,125.270355 332.933167,125.367058 332.933167,125.367058 
	C332.933167,125.367058 332.446472,125.272827 332.063690,124.910263 
	C330.816284,124.590324 329.951630,124.632950 329.087006,124.675575 
	C326.993164,124.373123 324.899292,124.070671 322.306610,123.293686 
	C319.558411,122.805267 317.309052,122.791405 315.059692,122.777542 
	C312.647339,122.832664 310.234985,122.887794 307.120544,122.616753 
	C304.598053,122.720520 302.777710,123.150452 300.957336,123.580391 
	C297.842163,124.614853 294.727020,125.649315 291.086121,126.465393 
	C290.022339,126.656273 289.484253,127.065544 288.946167,127.474808 
	C288.772186,128.877106 288.598206,130.279419 288.233276,132.502167 
	C288.445801,136.234467 288.849243,139.146317 289.252686,142.058167 
	C289.445312,143.785736 289.637909,145.513290 289.531006,147.879044 
	C289.369019,149.645859 289.506470,150.774490 289.643921,151.903122 
z"/>
<path fill="#F7F7F7" opacity="1.000000" stroke="none" 
	d="
M171.885162,531.179077 
	C165.493408,531.512390 159.375488,531.512390 152.724152,531.512390 
	C154.817596,521.299988 156.774063,511.414856 158.878815,501.561432 
	C162.867386,482.888977 166.988678,464.244812 170.965988,445.569977 
	C175.012131,426.571808 178.934326,407.547241 182.943695,388.541199 
	C185.271851,377.504852 187.805984,366.509338 189.934982,355.435364 
	C190.509750,352.445679 191.704605,351.609070 194.528778,351.708160 
	C199.491989,351.882324 204.465729,351.756805 210.177505,351.756805 
	C204.364014,377.660309 198.682892,402.973938 192.727982,429.507538 
	C195.688980,426.191193 197.882446,423.682831 200.131348,421.225159 
	C207.444214,413.233490 215.766068,406.638458 226.543488,404.175140 
	C235.785507,402.062744 245.160782,401.993530 253.884354,406.260956 
	C264.659729,411.532135 269.064362,421.303619 268.921234,432.495575 
	C268.799072,442.048218 267.126770,451.678314 265.232513,461.091522 
	C260.746002,483.386993 255.636230,505.556488 251.007889,527.824646 
	C250.356628,530.958069 249.232864,531.988892 246.142166,531.853271 
	C241.204010,531.636536 236.249344,531.795288 230.724792,531.795288 
	C232.423691,523.470886 233.927338,515.850769 235.539230,508.253693 
	C239.985306,487.298645 244.641083,466.385895 248.822418,445.378510 
	C249.748352,440.726501 249.744217,435.640747 248.971237,430.952087 
	C247.461533,421.794647 239.925278,417.847290 229.055237,419.168121 
	C215.534836,420.811005 206.068634,428.926056 198.429611,439.559601 
	C189.383499,452.151764 185.562347,466.727112 182.507553,481.611023 
	C179.135941,498.038635 175.614929,514.435547 171.885162,531.179077 
z"/>
<path fill="#F7F7F7" opacity="1.000000" stroke="none" 
	d="
M456.901794,249.021393 
	C453.594910,264.682404 450.326263,279.919128 447.050049,295.190979 
	C440.575531,295.190979 434.505188,295.190979 428.066193,295.190979 
	C435.131409,262.248627 442.167847,229.662506 449.098114,197.053818 
	C454.242493,172.848114 459.330322,148.629532 464.236267,124.374802 
	C465.044678,120.378143 466.504913,118.648415 470.785522,119.068367 
	C475.024994,119.484283 479.337158,119.159317 484.462067,119.159317 
	C478.761322,144.629578 473.235168,169.319611 467.467987,195.086624 
	C471.922760,190.370209 475.476074,186.078033 479.564850,182.377487 
	C492.412079,170.750000 507.123260,165.675751 524.140381,171.572998 
	C535.967896,175.671814 542.547424,185.183914 541.968140,199.174530 
	C541.531738,209.714066 539.362061,220.244125 537.274780,230.640045 
	C532.961731,252.122055 528.189087,273.511780 523.552673,295.186066 
	C517.337036,295.186066 511.257263,295.186066 504.655914,295.186066 
	C506.514404,286.047516 508.335724,277.164612 510.125732,268.275391 
	C514.351440,247.290939 518.904785,226.364471 522.657043,205.295486 
	C525.108887,191.528320 516.804199,183.384659 502.946991,185.174362 
	C489.190369,186.951096 479.777618,195.418594 472.257996,206.297806 
	C464.656921,217.294891 460.709595,229.775360 458.230286,242.785324 
	C457.858948,244.733795 457.372955,246.660400 456.901794,249.021393 
z"/>
<path fill="#F4F4F4" opacity="1.000000" stroke="none" 
	d="
M926.651733,515.723511 
	C940.004639,505.882477 949.508911,493.009735 958.979553,480.145874 
	C963.308044,474.266541 967.226868,468.082397 971.247925,461.981384 
	C973.043823,459.256531 974.811646,455.116394 978.501221,457.262726 
	C982.449280,459.559357 981.021240,463.860992 978.600281,466.903107 
	C967.320007,481.077759 956.674622,495.886322 944.199951,508.936523 
	C935.854004,517.667542 925.075195,524.215820 914.851807,530.928772 
	C911.440369,533.168823 906.205017,534.090210 902.103027,533.507019 
	C894.277100,532.394348 890.001587,524.959778 890.051880,514.264160 
	C890.105164,502.932465 893.006348,492.172546 898.156067,482.152679 
	C906.358826,466.192566 915.030823,450.473572 923.235413,434.514343 
	C925.494080,430.120850 927.311890,425.344574 928.325439,420.531982 
	C928.844666,418.066223 927.819153,414.638123 926.280212,412.529053 
	C924.110657,409.555756 920.579773,410.810760 918.232422,412.667877 
	C912.910767,416.878143 907.300354,420.981628 902.925720,426.086823 
	C881.551697,451.030212 862.572754,477.685547 847.838135,507.142731 
	C844.895996,513.024536 843.170105,519.515808 840.906982,525.734558 
	C840.682434,526.351624 840.845886,527.269226 840.448975,527.637146 
	C838.551514,529.396240 836.522949,531.013855 834.540955,532.681763 
	C833.356628,530.331848 831.072266,527.916443 831.207458,525.645020 
	C831.529602,520.229370 832.502930,514.732422 834.082886,509.532593 
	C840.588562,488.120514 847.314270,466.773407 854.171021,445.470642 
	C857.877930,433.954010 862.008606,422.573700 865.955017,411.134277 
	C868.386169,404.086884 874.094849,400.996796 880.219788,403.398712 
	C886.024109,405.674896 888.773499,412.639801 885.887939,418.826965 
	C880.890198,429.542908 875.572449,440.109253 870.476746,450.780243 
	C869.778870,452.241547 869.584656,453.943298 868.968750,456.235016 
	C880.051514,442.584015 890.180359,429.635956 900.883484,417.181458 
	C904.612366,412.842468 909.526001,409.381042 914.302368,406.108398 
	C930.634216,394.918335 944.007996,407.509155 945.249756,421.409454 
	C946.270874,432.840027 943.174988,443.739410 938.075134,453.634918 
	C929.712585,469.861206 920.202881,485.494232 911.274963,501.432281 
	C908.357666,506.640106 905.467102,511.900513 903.137390,517.380493 
	C902.264771,519.433167 903.021667,522.178650 903.035583,524.608215 
	C905.402466,524.540527 908.068909,525.155945 910.078918,524.274414 
	C915.653198,521.829956 920.954041,518.762146 926.651733,515.723511 
z"/>
<path fill="#F7F7F7" opacity="1.000000" stroke="none" 
	d="
M392.121521,502.144135 
	C383.070221,517.382751 371.046906,528.463623 353.672699,532.180054 
	C342.812103,534.503296 331.733582,534.376404 321.221069,530.178040 
	C305.936096,524.073608 297.042969,512.160767 295.096008,496.286163 
	C292.019440,471.201172 296.722290,447.390625 312.197449,426.805054 
	C327.117798,406.957520 347.206024,399.463348 371.606781,404.777832 
	C388.969604,408.559448 401.875000,422.985687 403.936737,440.596558 
	C406.465088,462.193207 402.655914,482.650085 392.121521,502.144135 
M381.130402,432.645203 
	C377.630920,426.248291 372.836334,421.199615 365.390350,419.987885 
	C352.042206,417.815643 340.191437,420.983093 331.207031,431.601044 
	C316.196014,449.341339 312.442291,470.406372 314.404938,492.762238 
	C315.468628,504.879333 321.518250,513.607483 334.135834,516.616516 
	C349.252747,520.221558 360.752472,514.282104 370.015900,502.912842 
	C378.233856,492.826721 381.911560,480.681000 383.707733,468.128967 
	C385.372284,456.496552 386.846649,444.627258 381.130402,432.645203 
z"/>
<path fill="#F7F7F7" opacity="1.000000" stroke="none" 
	d="
M417.813538,514.170776 
	C417.829773,512.533752 417.825806,511.367096 417.875519,510.202698 
	C417.889160,509.883453 418.063782,509.571106 418.120483,509.393616 
	C425.909302,512.020264 433.528809,515.468994 441.518616,517.072266 
	C452.688080,519.313599 464.137238,519.616577 474.197662,512.686646 
	C484.630127,505.500488 485.222443,490.847229 475.037750,483.353485 
	C466.354523,476.964508 456.887238,471.652618 447.923645,465.630768 
	C431.341614,454.490814 429.190277,435.684387 436.997223,421.258301 
	C442.545746,411.005493 452.154999,405.666168 463.037506,403.692017 
	C479.799988,400.651154 496.158051,403.260132 511.728607,410.315186 
	C512.305298,410.576508 512.799683,411.019287 513.596741,411.555206 
	C511.530334,416.486176 509.515533,421.294006 507.853790,425.259369 
	C498.439362,423.132080 489.843292,420.528961 481.059723,419.444214 
	C475.480743,418.755219 469.454437,419.655243 463.933105,421.048737 
	C457.098663,422.773560 453.013062,427.931793 452.042877,434.993073 
	C451.119965,441.710297 453.893158,447.227509 459.334503,450.920776 
	C466.885590,456.046021 474.836151,460.579224 482.539246,465.485962 
	C485.197571,467.179291 487.667755,469.180023 490.154663,471.128632 
	C509.074432,485.952850 504.350616,517.268555 483.186584,527.675171 
	C471.032867,533.651306 458.099579,535.402222 444.835144,533.682007 
	C437.808807,532.770691 430.936615,530.617126 424.022705,528.911499 
	C419.509857,527.798279 416.756897,525.361816 417.758606,520.130005 
	C418.097107,518.361938 417.813080,516.474792 417.813538,514.170776 
z"/>
<path fill="#F7F7F7" opacity="1.000000" stroke="none" 
	d="
M89.730331,516.642944 
	C98.753479,519.390686 107.207390,518.007202 115.556992,515.472290 
	C120.092598,514.095215 124.530762,512.397156 129.712418,510.601471 
	C129.712418,515.682190 129.882217,520.132141 129.596085,524.552551 
	C129.522171,525.694458 128.245529,527.288513 127.135345,527.753784 
	C110.660835,534.657898 93.813980,536.910217 76.680382,530.457153 
	C61.336159,524.677979 52.685112,512.856201 51.103016,497.043457 
	C48.206093,468.089325 54.136208,441.315552 75.190536,419.713745 
	C88.041878,406.528229 104.139496,401.124878 122.372200,402.905029 
	C129.583603,403.609100 136.660721,405.657501 143.811386,407.029053 
	C147.037277,407.647766 147.929855,409.250977 146.715561,412.364105 
	C145.221146,416.195465 144.000763,420.133728 142.695724,423.927551 
	C136.408936,422.455139 130.558929,420.824249 124.609367,419.739471 
	C105.118774,416.185760 91.433464,424.970825 81.695061,440.948273 
	C71.531860,457.622711 68.376358,476.018829 70.971008,495.164429 
	C72.407639,505.765137 78.507141,513.460510 89.730331,516.642944 
z"/>
<path fill="#F5F5F5" opacity="1.000000" stroke="none" 
	d="
M336.905731,208.013550 
	C336.653534,211.346283 337.108215,214.930557 336.027222,217.968399 
	C331.231934,231.444443 326.407135,244.938904 320.803192,258.090149 
	C315.267761,271.080688 308.068665,283.169159 294.462006,289.431427 
	C288.220398,292.304077 281.601257,294.356445 275.679901,296.582794 
	C282.206360,287.725891 288.739502,279.058197 295.017456,270.209442 
	C296.719604,267.810242 297.553864,264.812195 298.959900,262.181671 
	C300.726196,258.877136 302.251190,256.074982 298.388062,252.705734 
	C297.026154,251.517990 296.761627,247.046890 297.910950,245.475052 
	C299.677094,243.059616 303.097229,241.853546 305.815552,240.134323 
	C306.245911,240.576462 306.676270,241.018585 307.106628,241.460724 
	C310.692535,230.268250 314.278442,219.075775 318.439270,207.545593 
	C324.978027,207.476440 330.941864,207.744995 336.905731,208.013550 
z"/>
<path fill="#ECECEC" opacity="1.000000" stroke="none" 
	d="
M60.301086,229.084152 
	C60.358532,227.347519 60.415977,225.610870 60.926178,223.280457 
	C61.465691,221.564987 61.552444,220.443298 61.639198,219.321625 
	C61.639194,219.321625 61.658195,219.093048 62.154568,219.049591 
	C63.915138,218.849396 65.568398,219.144424 66.371750,218.452591 
	C68.944824,216.236618 69.604370,218.582306 70.753540,219.934494 
	C70.751335,220.703400 70.749130,221.472290 70.226761,222.598236 
	C68.606026,223.603119 67.505455,224.250992 66.404884,224.898865 
	C67.328903,225.279526 68.252922,225.660172 69.176949,226.040802 
	C69.202225,227.100296 69.227509,228.159775 68.838928,229.898224 
	C68.634293,237.389832 68.843529,244.202484 69.052757,251.015152 
	C69.185532,251.894226 69.318314,252.773300 69.299133,254.295349 
	C69.498993,255.644775 69.850800,256.351227 70.202606,257.057709 
	C70.427826,258.119537 70.653053,259.181396 70.632637,260.798187 
	C70.764771,261.918274 71.142532,262.483398 71.520302,263.048523 
	C74.489304,271.990845 78.946098,280.063782 85.333977,287.052032 
	C93.145782,295.598022 101.750938,297.390869 112.322464,292.598724 
	C124.127548,287.247406 132.106537,277.667175 140.435638,267.815765 
	C141.394379,268.613586 141.739563,269.384918 142.084732,270.156281 
	C134.933640,281.924500 125.402802,291.145996 113.016830,297.309326 
	C94.628143,306.459595 75.387482,298.047180 66.880333,276.405273 
	C66.160797,274.103699 65.408142,272.522430 64.655495,270.941132 
	C64.457161,270.520233 64.258827,270.099365 64.291855,269.176514 
	C64.156006,268.101776 63.788799,267.529053 63.421593,266.956299 
	C63.208317,266.030640 62.995041,265.104950 62.849628,263.471924 
	C62.600018,262.173096 62.282543,261.581635 61.965069,260.990143 
	C61.825317,260.096466 61.685566,259.202789 61.720448,257.629700 
	C61.520657,255.947235 61.146236,254.944183 60.771820,253.941132 
	C60.563614,252.539780 60.355408,251.138443 60.477684,248.994019 
	C60.639137,241.862015 60.470112,235.473083 60.301086,229.084152 
z"/>
<path fill="#EFEFEF" opacity="1.000000" stroke="none" 
	d="
M235.360443,193.095413 
	C235.370819,192.622223 235.381195,192.149017 235.871490,191.227707 
	C236.467896,189.989487 236.584366,189.199387 236.700836,188.409286 
	C237.950912,183.616669 239.200989,178.824036 240.655594,173.247284 
	C245.283600,174.730042 248.919586,175.894958 252.413315,177.014313 
	C249.866684,184.838318 247.505051,192.398071 244.890930,199.869461 
	C244.366562,201.368149 242.881500,202.530716 241.093170,203.925079 
	C237.952301,203.660522 235.557648,203.319153 233.162994,202.977783 
	C233.512909,201.246155 233.862808,199.514542 234.635651,197.346344 
	C235.159210,195.638321 235.259827,194.366867 235.360443,193.095413 
z"/>
<path fill="#E4E4E4" opacity="1.000000" stroke="none" 
	d="
M103.146324,148.029846 
	C103.875992,148.013763 104.605667,147.997681 105.699821,148.003769 
	C101.230255,155.235703 96.396194,162.445465 90.883942,169.956131 
	C86.045227,170.179123 81.884727,170.101212 77.724213,170.023300 
	C81.861710,162.917816 85.999214,155.812347 90.916107,148.862549 
	C95.512436,148.688766 99.329384,148.359299 103.146324,148.029846 
z"/>
<path fill="#F2F2F2" opacity="1.000000" stroke="none" 
	d="
M241.567047,213.450653 
	C241.102264,216.049210 240.637482,218.647751 239.911972,221.901154 
	C239.568344,224.082703 239.485458,225.609390 239.402557,227.136078 
	C239.352768,229.428879 239.302963,231.721680 239.213562,234.761688 
	C239.568390,236.517853 239.962830,237.526810 240.357269,238.535767 
	C240.487183,238.873184 240.617096,239.210587 240.916656,240.117828 
	C244.405258,244.981934 247.218140,242.563614 250.021133,240.014069 
	C250.848083,239.425003 251.675018,238.835938 253.101913,238.202240 
	C254.138855,238.781250 254.575851,239.404877 255.012848,240.028488 
	C252.188782,242.162308 249.589874,244.730087 246.492462,246.337067 
	C240.561508,249.414169 235.705368,247.024597 231.846008,239.152161 
	C231.465317,238.030670 231.179489,237.522827 230.893677,237.014984 
	C230.922928,231.297913 230.952179,225.580841 231.212738,219.154938 
	C231.426682,217.239471 231.409332,216.032837 231.391983,214.826187 
	C231.538559,214.134644 231.685150,213.443100 232.336136,212.488586 
	C235.749374,212.633972 238.658203,213.042313 241.567047,213.450653 
z"/>
<path fill="#F2F2F2" opacity="1.000000" stroke="none" 
	d="
M340.307465,203.128662 
	C340.182129,203.492477 340.056824,203.856277 339.430084,204.568085 
	C333.240295,204.705505 327.545135,204.588348 321.871033,204.179611 
	C321.056793,204.120941 320.343872,202.655228 319.584076,201.840683 
	C319.706909,201.437683 319.829742,201.034668 320.246704,200.151260 
	C320.639069,199.088120 320.737274,198.505371 320.835449,197.922638 
	C321.263214,196.553619 321.690979,195.184601 322.641602,193.418945 
	C324.939789,193.232895 326.710266,193.555344 328.491364,193.632370 
	C333.172028,193.834778 337.857330,193.930328 342.540771,194.068466 
	C342.298676,195.113480 342.056580,196.158493 341.280334,197.320145 
	C340.288330,197.716492 339.830475,197.996216 339.372620,198.275940 
	C339.813171,198.625275 340.253723,198.974609 340.694275,199.323944 
	C340.814636,199.691254 340.934998,200.058563 340.818970,200.906708 
	C340.490906,201.967926 340.399170,202.548294 340.307465,203.128662 
z"/>
<path fill="#ECECEC" opacity="1.000000" stroke="none" 
	d="
M306.648254,106.800201 
	C306.256653,106.806900 306.343414,106.827744 306.382935,106.807610 
	C300.553375,106.661964 298.200836,104.763878 298.094818,100.068512 
	C297.996002,95.693237 300.622040,92.552864 304.629120,92.254311 
	C308.859283,91.939140 312.518372,94.959320 312.710388,99.187599 
	C312.890717,103.158325 310.932343,105.750648 306.648254,106.800201 
z"/>
<path fill="#DEDEDE" opacity="1.000000" stroke="none" 
	d="
M285.525513,167.682587 
	C286.239075,168.229279 286.732239,169.013916 287.575775,169.893890 
	C286.366852,180.328827 284.788971,190.638596 280.267059,200.261353 
	C278.940979,203.083282 277.527740,204.157242 274.057312,202.498413 
	C277.197174,195.084549 280.636047,187.831604 283.304352,180.305450 
	C284.679016,176.428070 284.682220,172.064438 285.525513,167.682587 
z"/>
<path fill="#D3D3D3" opacity="1.000000" stroke="none" 
	d="
M255.340210,239.958130 
	C254.575851,239.404877 254.138855,238.781250 253.389771,238.095825 
	C258.252075,230.176346 263.426514,222.318665 269.262512,214.235748 
	C270.985321,214.015701 272.046570,214.020889 273.107819,214.026077 
	C267.294403,222.646637 261.480988,231.267212 255.340210,239.958130 
z"/>
<path fill="#DEDEDE" opacity="1.000000" stroke="none" 
	d="
M83.132294,184.056870 
	C81.663063,186.665527 80.193832,189.274185 78.247475,192.729996 
	C78.267410,192.370132 78.212227,193.366165 77.604370,194.688721 
	C74.199875,194.710129 71.348061,194.405029 68.496246,194.099915 
	C69.442719,190.473465 70.389198,186.847031 72.033569,182.890701 
	C76.198410,183.059509 79.665352,183.558182 83.132294,184.056870 
z"/>
<path fill="#E4E4E4" opacity="1.000000" stroke="none" 
	d="
M143.806473,244.578186 
	C140.474213,241.748215 139.781647,238.271240 142.437256,235.652420 
	C143.983170,234.127945 147.997589,233.311417 149.733688,234.276596 
	C151.493668,235.255051 152.921417,239.012436 152.537125,241.210434 
	C151.748199,245.722839 147.783157,245.463074 143.806473,244.578186 
z"/>
<path fill="#D6D6D6" opacity="1.000000" stroke="none" 
	d="
M70.988838,219.638611 
	C69.604370,218.582306 68.944824,216.236618 66.371750,218.452591 
	C65.568398,219.144424 63.915138,218.849396 62.251640,218.988525 
	C61.961235,217.318481 61.942562,215.644775 62.213432,214.019302 
	C62.508190,212.250504 63.071815,210.526505 63.641132,208.302887 
	C66.778244,208.029709 69.987976,207.750214 73.925323,207.407349 
	C72.934998,211.783188 72.079567,215.562958 70.988838,219.638611 
z"/>
<path fill="#F5F5F5" opacity="1.000000" stroke="none" 
	d="
M89.341164,172.008499 
	C88.215187,174.474472 87.089203,176.940445 85.446854,179.713486 
	C84.603432,180.577972 84.276382,181.135391 83.640541,181.958771 
	C79.898712,181.485733 76.465683,180.746780 73.032654,180.007812 
	C73.371048,179.000244 73.709442,177.992676 74.615433,176.438873 
	C75.809006,174.638596 76.434975,173.384552 77.060944,172.130493 
	C77.060936,172.130493 76.887413,172.067078 77.358200,172.094330 
	C81.666382,172.083878 85.503777,172.046188 89.341164,172.008499 
z"/>
<path fill="#ECECEC" opacity="1.000000" stroke="none" 
	d="
M68.164352,194.258118 
	C71.348061,194.405029 74.199875,194.710129 77.468155,195.012314 
	C77.189331,197.752487 76.494049,200.495590 75.714363,203.571686 
	C74.165535,202.993988 73.333130,202.511475 72.450493,202.388016 
	C70.214035,202.075165 67.955040,201.923492 65.705070,201.707275 
	C66.414200,199.276947 67.123329,196.846619 68.164352,194.258118 
z"/>
<path fill="#E4E4E4" opacity="1.000000" stroke="none" 
	d="
M349.879395,169.024277 
	C349.810730,170.211426 349.742065,171.398590 349.048096,172.802856 
	C346.792023,173.328949 345.161194,173.637924 343.048584,173.782135 
	C338.270813,173.762238 333.974823,173.907089 329.678833,174.051956 
	C329.680450,169.703445 331.433289,167.313339 336.937714,168.413940 
	C341.767609,168.724533 345.823486,168.874405 349.879395,169.024277 
z"/>
<path fill="#DEDEDE" opacity="1.000000" stroke="none" 
	d="
M342.643311,143.363525 
	C342.028717,145.426910 341.026337,147.637451 339.701416,149.896301 
	C338.496307,149.685394 337.504486,149.600357 336.754059,149.130127 
	C335.254761,148.190659 332.980835,147.228943 332.709442,145.925919 
	C332.410522,144.491028 333.601196,141.890961 334.883911,141.224335 
	C336.142029,140.570511 338.359161,141.611084 340.099640,142.104645 
	C340.887787,142.328156 341.541077,143.027313 342.643311,143.363525 
z"/>
<path fill="#515151" opacity="1.000000" stroke="none" 
	d="
M319.241364,201.975220 
	C320.343872,202.655228 321.056793,204.120941 321.871033,204.179611 
	C327.545135,204.588348 333.240295,204.705505 339.378784,204.852417 
	C339.097931,205.795303 338.366974,206.801849 337.270874,207.910980 
	C330.941864,207.744995 324.978027,207.476440 318.590942,207.215027 
	C318.411346,205.518051 318.654999,203.813904 319.241364,201.975220 
z"/>
<path fill="#D6D6D6" opacity="1.000000" stroke="none" 
	d="
M233.041992,203.393265 
	C235.557648,203.319153 237.952301,203.660522 240.763092,204.041962 
	C241.477936,206.442764 241.776611,208.803497 241.575745,211.587799 
	C239.092209,211.607986 237.000244,211.464615 235.165298,210.702423 
	C234.087341,210.254700 233.418091,208.823029 232.565002,207.833923 
	C232.683670,206.492203 232.802322,205.150467 233.041992,203.393265 
z"/>
<path fill="#D3D3D3" opacity="1.000000" stroke="none" 
	d="
M254.237473,167.177933 
	C254.942459,166.457047 255.797134,166.246307 256.992371,166.101974 
	C256.031464,172.095245 252.062439,172.988815 246.829971,171.972260 
	C245.319473,171.678802 243.643524,172.236938 241.882339,172.421539 
	C241.190216,168.984451 242.707092,167.890015 245.858871,167.964157 
	C248.697891,168.030930 251.544098,167.792099 254.237473,167.177933 
z"/>
<path fill="#A8A8A8" opacity="1.000000" stroke="none" 
	d="
M342.796326,194.039917 
	C337.857330,193.930328 333.172028,193.834778 328.491364,193.632370 
	C326.710266,193.555344 324.939789,193.232895 322.757080,193.078445 
	C323.215546,191.309738 324.081421,189.484863 325.391815,187.303894 
	C326.552246,187.277466 327.268158,187.607132 327.984039,187.936798 
	C329.011780,189.287781 329.861786,191.581024 331.100220,191.814606 
	C334.950623,192.540833 338.948578,192.482803 342.888000,192.747925 
	C343.007294,192.755951 343.206848,192.974213 343.205872,193.093140 
	C343.203430,193.399612 343.109375,193.705338 342.796326,194.039917 
z"/>
<path fill="#E4E4E4" opacity="1.000000" stroke="none" 
	d="
M390.115692,163.177063 
	C388.730225,161.616150 387.075745,160.090271 386.985199,158.476624 
	C386.932159,157.530960 389.585846,155.439331 390.637695,155.663818 
	C392.134888,155.983292 393.278931,157.957474 394.573853,159.224777 
	C393.217102,160.541611 391.860352,161.858429 390.115692,163.177063 
z"/>
<path fill="#A8A8A8" opacity="1.000000" stroke="none" 
	d="
M343.530365,173.946915 
	C345.161194,173.637924 346.792023,173.328949 348.802734,173.068848 
	C349.163910,176.902405 347.140991,178.328598 343.508698,178.221069 
	C339.191559,178.093262 334.865387,178.259155 330.549469,178.111542 
	C329.840302,178.087280 329.163879,177.106171 329.188354,176.371109 
	C332.028961,176.204178 334.235474,175.878494 336.259064,176.345490 
	C339.323242,177.052643 341.731659,176.656326 343.530365,173.946915 
z"/>
<path fill="#D3D3D3" opacity="1.000000" stroke="none" 
	d="
M325.001740,270.719238 
	C326.384125,272.261383 327.428864,273.805115 328.473602,275.348846 
	C327.207458,276.187012 325.991669,277.556610 324.658051,277.683014 
	C323.714081,277.772552 321.605225,275.822479 321.755066,275.401337 
	C322.356628,273.710205 323.635590,272.260040 325.001740,270.719238 
z"/>
<path fill="#D6D6D6" opacity="1.000000" stroke="none" 
	d="
M328.443909,188.031921 
	C327.268158,187.607132 326.552246,187.277466 325.524902,186.988586 
	C326.228333,186.027496 327.243256,185.025589 328.941742,184.302185 
	C334.559113,185.184204 339.839264,184.348236 344.028778,188.045685 
	C338.987122,188.072815 333.945465,188.099945 328.443909,188.031921 
z"/>
<path fill="#4A4A4A" opacity="1.000000" stroke="none" 
	d="
M350.219208,168.907242 
	C345.823486,168.874405 341.767609,168.724533 337.355835,168.375290 
	C336.481445,165.771194 330.685059,167.660980 333.136902,162.945343 
	C333.663727,163.423355 333.855652,164.534927 334.147552,164.561813 
	C339.763428,165.079239 345.391022,165.469482 351.390076,165.790253 
	C351.362335,166.726440 350.960663,167.758331 350.219208,168.907242 
z"/>
<path fill="#C4C4C4" opacity="1.000000" stroke="none" 
	d="
M273.274048,213.730988 
	C272.046570,214.020889 270.985321,214.015701 269.526001,214.012009 
	C271.116516,211.259933 269.991150,205.249435 277.144562,207.264542 
	C275.828125,209.457733 274.634186,211.446808 273.274048,213.730988 
z"/>
<path fill="#D6D6D6" opacity="1.000000" stroke="none" 
	d="
M69.173721,250.628845 
	C68.843529,244.202484 68.634293,237.389832 68.724228,230.284760 
	C69.113831,236.742416 69.204254,243.492477 69.173721,250.628845 
z"/>
<path fill="#D6D6D6" opacity="1.000000" stroke="none" 
	d="
M60.100445,229.430847 
	C60.470112,235.473083 60.639137,241.862015 60.564590,248.574280 
	C60.180611,242.524261 60.040207,236.150909 60.100445,229.430847 
z"/>
<path fill="#D6D6D6" opacity="1.000000" stroke="none" 
	d="
M329.331909,99.011963 
	C328.120667,100.273605 326.918304,101.327728 325.533386,102.012657 
	C325.325775,102.115326 323.729462,100.490219 323.727051,99.661613 
	C323.723846,98.557938 324.652985,97.451561 325.181641,96.346352 
	C326.548279,97.125748 327.914856,97.905136 329.331909,99.011963 
z"/>
<path fill="#4A4A4A" opacity="1.000000" stroke="none" 
	d="
M72.806793,180.027527 
	C76.465683,180.746780 79.898712,181.485733 83.868881,181.968079 
	C84.406013,181.711472 84.853638,181.803741 84.853638,181.803741 
	C84.472481,182.475281 84.091331,183.146835 83.421234,183.937622 
	C79.665352,183.558182 76.198410,183.059509 72.310143,182.661926 
	C72.119530,181.857758 72.350235,180.952484 72.806793,180.027527 
z"/>
<path fill="#A8A8A8" opacity="1.000000" stroke="none" 
	d="
M344.370422,187.968262 
	C339.839264,184.348236 334.559113,185.184204 329.325775,184.346436 
	C334.044678,183.097214 339.104584,181.905289 343.608368,185.588440 
	C344.204926,186.076309 344.355164,187.109970 344.370422,187.968262 
z"/>
<path fill="#515151" opacity="1.000000" stroke="none" 
	d="
M343.048584,173.782135 
	C341.731659,176.656326 339.323242,177.052643 336.259064,176.345490 
	C334.235474,175.878494 332.028961,176.204178 329.469177,176.105713 
	C329.104858,175.490250 329.175720,174.944016 329.462708,174.224884 
	C333.974823,173.907089 338.270813,173.762238 343.048584,173.782135 
z"/>
<path fill="#6E6E6E" opacity="1.000000" stroke="none" 
	d="
M89.641602,172.102539 
	C85.503777,172.046188 81.666382,172.083878 77.371597,172.002930 
	C77.030769,171.359207 77.147339,170.834167 77.494064,170.166199 
	C81.884727,170.101212 86.045227,170.179123 90.681686,170.226257 
	C90.752441,170.862518 90.347244,171.529556 89.641602,172.102539 
z"/>
<path fill="#C4C4C4" opacity="1.000000" stroke="none" 
	d="
M146.571213,258.637634 
	C148.218765,255.883438 149.866302,253.129242 151.513840,250.375031 
	C152.009460,250.679321 152.505066,250.983612 153.000671,251.287903 
	C151.760208,253.802521 150.519745,256.317108 148.465500,258.867432 
	C147.291550,258.814636 146.931381,258.726135 146.571213,258.637634 
z"/>
<path fill="#4A4A4A" opacity="1.000000" stroke="none" 
	d="
M232.266022,207.922089 
	C233.418091,208.823029 234.087341,210.254700 235.165298,210.702423 
	C237.000244,211.464615 239.092209,211.607986 241.486801,211.939545 
	C241.888107,212.141083 241.878799,212.414459 241.718277,213.069244 
	C238.658203,213.042313 235.749374,212.633972 232.449951,212.153442 
	C232.028595,210.724243 231.997818,209.367249 232.266022,207.922089 
z"/>
<path fill="#515151" opacity="1.000000" stroke="none" 
	d="
M102.931244,147.630173 
	C99.329384,148.359299 95.512436,148.688766 91.279961,148.825073 
	C90.864426,148.631927 90.817375,148.427917 91.170532,147.997192 
	C91.306557,147.349075 91.089424,147.131668 90.872292,146.914261 
	C90.872292,146.914261 90.770035,146.979645 90.733650,146.931274 
	C92.628860,146.822601 94.563324,146.668381 96.491264,146.727386 
	C98.569420,146.791031 100.641464,147.054306 102.931244,147.630173 
z"/>
<path fill="#DEDEDE" opacity="1.000000" stroke="none" 
	d="
M289.396423,141.643433 
	C288.849243,139.146317 288.445801,136.234467 288.151245,132.857040 
	C288.686859,135.337219 289.113525,138.282959 289.396423,141.643433 
z"/>
<path fill="#4A4A4A" opacity="1.000000" stroke="none" 
	d="
M249.629944,240.048828 
	C247.218140,242.563614 244.405258,244.981934 241.105652,240.314514 
	C243.829559,239.988785 246.534149,240.036179 249.629944,240.048828 
z"/>
<path fill="#DEDEDE" opacity="1.000000" stroke="none" 
	d="
M288.593811,166.391968 
	C288.433167,164.236816 288.522308,161.783890 288.929077,159.133820 
	C289.112305,161.322525 288.977936,163.708359 288.593811,166.391968 
z"/>
<path fill="#DEDEDE" opacity="1.000000" stroke="none" 
	d="
M315.406708,122.930412 
	C317.309052,122.791405 319.558411,122.805267 321.930573,123.146660 
	C319.953491,123.343880 317.853607,123.213577 315.406708,122.930412 
z"/>
<path fill="#D3D3D3" opacity="1.000000" stroke="none" 
	d="
M245.419983,162.657806 
	C246.787399,163.613525 247.887070,164.736252 249.031250,166.194168 
	C247.085693,166.017044 243.618317,167.069366 245.419983,162.657806 
z"/>
<path fill="#D6D6D6" opacity="1.000000" stroke="none" 
	d="
M69.357300,225.810547 
	C68.252922,225.660172 67.328903,225.279526 66.404884,224.898865 
	C67.505455,224.250992 68.606026,223.603119 70.052551,222.943756 
	C70.111557,223.814926 69.824608,224.697586 69.357300,225.810547 
z"/>
<path fill="#C4C4C4" opacity="1.000000" stroke="none" 
	d="
M142.368866,269.998352 
	C141.739563,269.384918 141.394379,268.613586 140.685425,267.603210 
	C140.983276,266.266479 141.644913,265.168732 142.685791,264.349945 
	C143.573273,265.238800 144.081512,265.848724 144.589752,266.458618 
	C143.944168,267.585907 143.298599,268.713165 142.368866,269.998352 
z"/>
<path fill="#DEDEDE" opacity="1.000000" stroke="none" 
	d="
M301.343384,123.643021 
	C302.777710,123.150452 304.598053,122.720520 306.674683,122.534286 
	C305.197083,123.087219 303.463257,123.396439 301.343384,123.643021 
z"/>
<path fill="#ECECEC" opacity="1.000000" stroke="none" 
	d="
M144.794128,266.192291 
	C144.081512,265.848724 143.573273,265.238800 142.984222,264.223450 
	C143.927399,262.274658 144.951355,260.731354 146.509979,259.458984 
	C147.277222,260.007690 147.509781,260.285461 147.742371,260.563232 
	C146.827744,262.350800 145.913132,264.138397 144.794128,266.192291 
z"/>
<path fill="#4A4A4A" opacity="1.000000" stroke="none" 
	d="
M239.711578,227.023911 
	C239.485458,225.609390 239.568344,224.082703 239.924850,222.289917 
	C240.139175,223.653137 240.079880,225.282440 239.711578,227.023911 
z"/>
<path fill="#D6D6D6" opacity="1.000000" stroke="none" 
	d="
M64.625336,271.276611 
	C65.408142,272.522430 66.160797,274.103699 66.866516,276.044128 
	C66.078117,274.806183 65.336647,273.209137 64.625336,271.276611 
z"/>
<path fill="#D6D6D6" opacity="1.000000" stroke="none" 
	d="
M235.136749,193.363861 
	C235.259827,194.366867 235.159210,195.638321 234.760361,196.982559 
	C234.612427,195.914337 234.762726,194.773315 235.136749,193.363861 
z"/>
<path fill="#4A4A4A" opacity="1.000000" stroke="none" 
	d="
M231.116272,214.962769 
	C231.409332,216.032837 231.426682,217.239471 231.199554,218.720490 
	C230.916901,217.696365 230.878738,216.397873 231.116272,214.962769 
z"/>
<path fill="#C4C4C4" opacity="1.000000" stroke="none" 
	d="
M153.518402,247.132202 
	C153.038696,247.509125 152.760025,247.827850 152.481339,248.146561 
	C152.702591,248.368317 152.923843,248.590057 153.145111,248.811813 
	C153.496948,248.222321 153.848785,247.632828 154.200623,247.043335 
	C154.040222,247.053574 153.879807,247.063797 153.518402,247.132202 
z"/>
<path fill="#DEDEDE" opacity="1.000000" stroke="none" 
	d="
M76.734673,172.086456 
	C76.434975,173.384552 75.809006,174.638596 74.893646,175.977356 
	C75.205643,174.722198 75.807022,173.382324 76.734673,172.086456 
z"/>
<path fill="#DEDEDE" opacity="1.000000" stroke="none" 
	d="
M289.817383,151.670227 
	C289.506470,150.774490 289.369019,149.645859 289.452576,148.310104 
	C289.779388,149.214432 289.885101,150.325897 289.817383,151.670227 
z"/>
<path fill="#D6D6D6" opacity="1.000000" stroke="none" 
	d="
M61.386246,219.549744 
	C61.552444,220.443298 61.465691,221.564987 61.085869,222.875092 
	C60.906303,221.968292 61.019798,220.873062 61.386246,219.549744 
z"/>
<path fill="#DEDEDE" opacity="1.000000" stroke="none" 
	d="
M329.265991,124.864441 
	C329.951630,124.632950 330.816284,124.590324 331.846252,124.791351 
	C331.156036,125.041100 330.300507,125.047211 329.265991,124.864441 
z"/>
<path fill="#D6D6D6" opacity="1.000000" stroke="none" 
	d="
M60.673904,254.260620 
	C61.146236,254.944183 61.520657,255.947235 61.792362,257.295593 
	C61.318432,256.620636 60.947212,255.600372 60.673904,254.260620 
z"/>
<path fill="#4A4A4A" opacity="1.000000" stroke="none" 
	d="
M240.546295,238.213593 
	C239.962830,237.526810 239.568390,236.517853 239.282166,235.186646 
	C239.838684,235.873413 240.287003,236.882416 240.546295,238.213593 
z"/>
<path fill="#DEDEDE" opacity="1.000000" stroke="none" 
	d="
M343.311157,127.967331 
	C344.023224,127.844635 344.983582,127.929367 345.993805,128.303055 
	C345.215607,128.452927 344.387512,128.313843 343.311157,127.967331 
z"/>
<path fill="#D6D6D6" opacity="1.000000" stroke="none" 
	d="
M63.360954,267.233704 
	C63.788799,267.529053 64.156006,268.101776 64.312614,268.821289 
	C63.834785,268.482391 63.567554,267.996765 63.360954,267.233704 
z"/>
<path fill="#DEDEDE" opacity="1.000000" stroke="none" 
	d="
M333.599976,125.518219 
	C334.198761,125.407463 334.978119,125.544571 335.909393,125.957626 
	C335.301056,126.077744 334.540833,125.921913 333.599976,125.518219 
z"/>
<path fill="#DEDEDE" opacity="1.000000" stroke="none" 
	d="
M289.226776,127.491409 
	C289.484253,127.065544 290.022339,126.656273 290.720795,126.427261 
	C290.423248,126.907669 289.965332,127.207832 289.226776,127.491409 
z"/>
<path fill="#DEDEDE" opacity="1.000000" stroke="none" 
	d="
M339.277588,126.856308 
	C339.721954,126.687965 340.342468,126.744469 341.014221,127.031479 
	C340.528198,127.201714 339.990967,127.141441 339.277588,126.856308 
z"/>
<path fill="#DEDEDE" opacity="1.000000" stroke="none" 
	d="
M85.003387,181.592270 
	C84.853638,181.803741 84.406013,181.711472 84.177673,181.702148 
	C84.276382,181.135391 84.603432,180.577972 85.183624,179.979660 
	C85.342224,180.419449 85.247681,180.900116 85.003387,181.592270 
z"/>
<path fill="#515151" opacity="1.000000" stroke="none" 
	d="
M340.877716,199.109222 
	C340.253723,198.974609 339.813171,198.625275 339.372620,198.275940 
	C339.830475,197.996216 340.288330,197.716492 340.997681,197.614822 
	C341.186493,198.160080 341.123810,198.527298 340.877716,199.109222 
z"/>
<path fill="#DEDEDE" opacity="1.000000" stroke="none" 
	d="
M350.290894,130.314835 
	C350.427399,130.640671 350.569489,131.315933 350.425507,132.020493 
	C350.191772,131.587952 350.244110,131.126099 350.290894,130.314835 
z"/>
<path fill="#D6D6D6" opacity="1.000000" stroke="none" 
	d="
M236.461090,188.596725 
	C236.584366,189.199387 236.467896,189.989487 236.068024,190.925812 
	C235.930191,190.309402 236.075760,189.546783 236.461090,188.596725 
z"/>
<path fill="#D6D6D6" opacity="1.000000" stroke="none" 
	d="
M71.569916,262.767517 
	C71.142532,262.483398 70.764771,261.918274 70.590759,261.208405 
	C71.069511,261.537964 71.344521,262.012238 71.569916,262.767517 
z"/>
<path fill="#D6D6D6" opacity="1.000000" stroke="none" 
	d="
M61.861607,261.206970 
	C62.282543,261.581635 62.600018,262.173096 62.855339,263.113892 
	C62.448177,262.783417 62.103161,262.103607 61.861607,261.206970 
z"/>
<path fill="#D6D6D6" opacity="1.000000" stroke="none" 
	d="
M70.296402,256.765442 
	C69.850800,256.351227 69.498993,255.644775 69.257019,254.627747 
	C69.707970,255.035843 70.049080,255.754532 70.296402,256.765442 
z"/>
<path fill="#515151" opacity="1.000000" stroke="none" 
	d="
M320.572693,197.969971 
	C320.737274,198.505371 320.639069,199.088120 320.275726,199.835907 
	C320.110352,199.339737 320.210114,198.678528 320.572693,197.969971 
z"/>
<path fill="#4A4A4A" opacity="1.000000" stroke="none" 
	d="
M230.673187,237.142365 
	C231.179489,237.522827 231.465317,238.030670 231.677826,238.839706 
	C231.220566,238.517181 230.836639,237.893448 230.673187,237.142365 
z"/>
<path fill="#515151" opacity="1.000000" stroke="none" 
	d="
M340.566895,203.101257 
	C340.399170,202.548294 340.490906,201.967926 340.828186,201.196472 
	C340.991241,201.694885 340.908783,202.384369 340.566895,203.101257 
z"/>
<path fill="#ECECEC" opacity="1.000000" stroke="none" 
	d="
M146.584381,258.674561 
	C146.931381,258.726135 147.291550,258.814636 148.194519,259.031006 
	C148.582947,259.525787 148.428604,259.892731 148.008301,260.411438 
	C147.509781,260.285461 147.277222,260.007690 146.791916,259.246887 
	C146.539185,258.763885 146.597565,258.711487 146.584381,258.674561 
z"/>
<path fill="#E4E4E4" opacity="1.000000" stroke="none" 
	d="
M90.515778,146.928223 
	C91.089424,147.131668 91.306557,147.349075 91.261620,147.945618 
	C90.719452,147.863892 90.439354,147.403030 90.515778,146.928223 
z"/>
<path fill="#030303" opacity="1.000000" stroke="none" 
	d="
M381.276062,432.997162 
	C386.846649,444.627258 385.372284,456.496552 383.707733,468.128967 
	C381.911560,480.681000 378.233856,492.826721 370.015900,502.912842 
	C360.752472,514.282104 349.252747,520.221558 334.135834,516.616516 
	C321.518250,513.607483 315.468628,504.879333 314.404938,492.762238 
	C312.442291,470.406372 316.196014,449.341339 331.207031,431.601044 
	C340.191437,420.983093 352.042206,417.815643 365.390350,419.987885 
	C372.836334,421.199615 377.630920,426.248291 381.276062,432.997162 
z"/>
</svg>